PathFileType	3	(X/Y/Z)	F:\ViconData\AntennenMessung\Messung1\Session1\ID06.trc
DataRate	CameraRate	NumFrames	NumMarkers	Units	OrigDataRate	OrigDataStartFrame	OrigNumFrames
120.0	120.0	4	70	mm	120.0	712	948	
Frame#	Time	Ashort			Along			Atop			A4			Bshort			Blong			Btop			B4			Cshort			Clong			Ctop			C4			Dshort			Dlong			Dtop			D4			Eshort			Elong			Etop			E4			Fshort			Flong			Ftop			F4			Gshort			Glong			Gtop			G4			Hshort			Hlong			Htop			H4			I1			I2			I3			I4			I5			WandAshort			WandAlong			WandAtop			WandA4			WandA15			WandBshort			WandB4			WandB5			WandBtop			WandBlong			WandCshort			WandClong			WandCtop			WandC4			WandC5			Acenter			Aantenna			Bcenter			Bantenna			Ccenter			Cantenna			Dcenter			Dantenna			Ecenter			Eantenna			Fcenter			Fantenna			Gcenter			Gantenna			Hcenter			Hantenna			Icenter			Iantenna			
		X1	Y1	Z1	X2	Y2	Z2	X3	Y3	Z3	X4	Y4	Z4	X5	Y5	Z5	X6	Y6	Z6	X7	Y7	Z7	X8	Y8	Z8	X9	Y9	Z9	X10	Y10	Z10	X11	Y11	Z11	X12	Y12	Z12	X13	Y13	Z13	X14	Y14	Z14	X15	Y15	Z15	X16	Y16	Z16	X17	Y17	Z17	X18	Y18	Z18	X19	Y19	Z19	X20	Y20	Z20	X21	Y21	Z21	X22	Y22	Z22	X23	Y23	Z23	X24	Y24	Z24	X25	Y25	Z25	X26	Y26	Z26	X27	Y27	Z27	X28	Y28	Z28	X29	Y29	Z29	X30	Y30	Z30	X31	Y31	Z31	X32	Y32	Z32	X33	Y33	Z33	X34	Y34	Z34	X35	Y35	Z35	X36	Y36	Z36	X37	Y37	Z37	X38	Y38	Z38	X39	Y39	Z39	X40	Y40	Z40	X41	Y41	Z41	X42	Y42	Z42	X43	Y43	Z43	X44	Y44	Z44	X45	Y45	Z45	X46	Y46	Z46	X47	Y47	Z47	X48	Y48	Z48	X49	Y49	Z49	X50	Y50	Z50	X51	Y51	Z51	X52	Y52	Z52	X53	Y53	Z53	X54	Y54	Z54	X55	Y55	Z55	X56	Y56	Z56	X57	Y57	Z57	X58	Y58	Z58	X59	Y59	Z59	X60	Y60	Z60	X61	Y61	Z61	X62	Y62	Z62	X63	Y63	Z63	X64	Y64	Z64	X65	Y65	Z65	X66	Y66	Z66	X67	Y67	Z67	X68	Y68	Z68	X69	Y69	Z69	X70	Y70	Z70	
712	5.925	-1038.2507	214.53308	-1644.1761	-1109.345	203.65569	-1599.5479	-1063.6898	172.9969	-1625.651	-1054.172	262.17319	-1634.9622	-1353.0198	235.04326	1003.9722	-1281.3887	227.19971	1052.4084	-1322.9519	194.11232	1020.8824	-1284.6498	287.76678	1052.8838	813.89197	187.50862	1209.6003	892.53729	178.38158	1179.2111	844.40857	145.42178	1198.2511	860.89136	292.47369	1167.2726	1115.8396	209.83424	-1401.7855	1056.3986	194.13745	-1460.2809	1095.0229	162.24641	-1423.9222	1069.8445	238.74278	-1425.9695	-1204.4692	1685.9667	-1563.3158	-1129.111	1688.2843	-1606.1024	-1173.1034	1724.4243	-1581.9662	-1133.4974	1581.0446	-1603.5638	-1239.6847	1699.1836	1119.4333	-1309.3171	1698.701	1071.891	-1270.4503	1736.2678	1096.8883	-1244.9672	1593.7446	1106.3116	988.87598	1664.2622	1162.3473	957.52484	1700.3031	1183.825	922.18188	1662.2819	1214.9078	939.73584	1659.3828	1159.9678	999.25116	1668.5027	-1579.502	1058.9962	1670.1292	-1518.7062	1025.1161	1708.0037	-1551.1638	1059.3563	1672.1663	-1585.579	-232.5144	1722.739	477.35275	-148.26552	1725.3793	477.55246	-195.59338	1761.0292	478.26321	-195.63155	1722.6455	509.02332	-195.6916	1725.8744	430.75101																																														-1068.8851	209.84601	-1624.9458	-1074.3287	248.45715	-1624.2069	-1321.7214	231.6161	1025.1357	-1320.4507	270.34711	1029.5283	848.10846	183.53767	1196.3785	851.87201	222.3089	1194.474	1088.7722	202.68646	-1428.4222	1082.8505	240.9978	-1432.6854	-1171.871	1686.9691	-1581.8242	-1170.5884	1647.9906	-1581.6765	-1270.9908	1698.9666	1098.0586	-1271.5557	1659.9899	1099.2814	952.89252	1705.6282	1186.9983	972.85168	1733.7994	1168.8595	1026.6436	1669.2483	-1551.6278	1028.1793	1630.2814	-1552.0945	-194.42888	1723.9325	477.44302	-193.20552	1684.9612	476.58139
713	5.9333333	-1038.233	214.58246	-1644.2107	-1109.2675	203.79724	-1599.5385	-1063.6388	173.03294	-1625.6691	-1054.1718	262.16867	-1634.9618	-1352.996	235.02452	1003.9949	-1281.3846	227.2328	1052.3688	-1322.9164	194.16959	1020.7939	-1284.635	287.77161	1052.855	813.93091	187.46315	1209.5588	892.49231	178.31648	1179.3062	844.45923	145.33838	1198.3562	860.81885	292.39493	1167.3881	1115.8379	209.82985	-1401.7787	1056.3317	194.08412	-1460.2743	1095.0458	162.29861	-1423.8846	1069.8361	238.67789	-1425.9037	-1204.4642	1685.9673	-1563.3175	-1129.1123	1688.2695	-1606.1052	-1173.1084	1724.4338	-1581.9767	-1133.4972	1581.0421	-1603.569	-1239.6824	1699.1785	1119.432	-1309.1537	1698.4242	1071.7863	-1270.4596	1736.2772	1096.8894	-1244.9711	1593.6216	1106.3555	988.82166	1664.2284	1162.3619	957.49902	1700.3481	1183.8303	922.0954	1662.3052	1214.963	939.789	1659.3923	1159.9432	999.24109	1668.4718	-1579.484	1058.9773	1670.1228	-1518.7092	1025.1132	1708.0183	-1551.1719	1059.3594	1672.177	-1585.5999	-232.51288	1722.7495	477.34607	-148.25354	1725.3473	477.5741	-195.60989	1761.0405	478.38763	-195.59898	1722.6295	509.0462	-195.66058	1725.8522	430.73596																																														-1068.8098	209.93993	-1624.9813	-1074.2206	248.55609	-1624.2617	-1321.7506	231.62486	1025.1012	-1320.5453	270.35098	1029.5547	848.14087	183.48018	1196.3851	851.88312	222.24849	1194.3818	1088.7797	202.67009	-1428.3773	1082.8339	240.97771	-1432.6404	-1171.876	1686.963	-1581.8223	-1170.594	1647.9843	-1581.6619	-1270.8523	1698.84	1098.0544	-1271.2612	1659.861	1099.2676	952.90082	1705.6504	1186.9819	972.89453	1733.7828	1168.8212	1026.6348	1669.2288	-1551.6138	1028.1636	1630.2614	-1552.0579	-194.46297	1723.9225	477.44904	-193.25887	1684.9536	476.46365
714	5.9416667	-1038.2303	214.55986	-1644.179	-1109.3313	203.64276	-1599.5166	-1063.579	173.06792	-1625.6788	-1054.1104	262.16653	-1634.9423	-1352.9282	235.18704	1003.9923	-1281.3625	227.23769	1052.3527	-1322.9242	194.12444	1020.8618	-1284.6703	287.73474	1052.9202	813.85425	187.44997	1209.5385	892.85956	178.89182	1178.7469	844.51562	145.38017	1198.2935	860.86713	292.47311	1167.3658	1115.7981	209.54497	-1401.6343	1056.3174	194.06964	-1460.228	1095.009	162.18904	-1423.9521	1069.8529	238.6992	-1425.9706	-1204.4606	1685.9695	-1563.3164	-1129.1753	1688.4188	-1606.6104	-1173.095	1724.4265	-1581.9666	-1133.5233	1581.0637	-1603.5763	-1239.7029	1699.2098	1119.4463	-1309.3129	1698.6796	1071.8857	-1270.4833	1736.3152	1096.906	-1245.7712	1593.0081	1110.6934	988.88763	1664.276	1162.3673	957.49127	1700.3304	1183.8094	922.26385	1662.2026	1214.9235	939.79852	1659.3779	1159.978	999.22003	1668.4966	-1579.5039	1058.9867	1670.1246	-1518.7012	1025.0951	1708.0182	-1551.1737	1059.3333	1672.1667	-1585.6119	-232.51234	1722.7548	477.34854	-148.28133	1725.3584	477.58054	-195.59299	1761.047	478.39526	-195.54024	1722.5846	509.05777	-195.67569	1725.8749	430.74472																																														-1068.7914	209.86737	-1624.9818	-1074.2601	248.47511	-1624.2506	-1321.6377	231.71136	1025.1367	-1320.3125	270.43915	1029.5414	847.8866	183.76343	1196.2747	851.29401	222.56067	1194.2341	1088.7654	202.51178	-1428.2637	1082.8308	240.83913	-1432.3619	-1171.9158	1687.0283	-1582.0317	-1170.6866	1648.0477	-1582.0997	-1270.9924	1698.9714	1098.0677	-1271.5239	1659.9939	1099.2803	952.93427	1705.5635	1186.9215	972.85632	1733.7286	1168.7328	1026.6172	1669.2429	-1551.6316	1028.1469	1630.2756	-1552.0919	-194.4431	1723.9314	477.45337	-193.23584	1684.9626	476.46448
715	5.95	-1038.2607	214.69911	-1644.1615	-1109.3281	203.65698	-1599.5472	-1063.7742	172.55952	-1625.4093	-1054.1184	262.13361	-1634.9408	-1352.8159	235.29758	1003.933	-1281.3599	227.22539	1052.4124	-1322.8756	194.17741	1020.8157	-1284.5604	287.81143	1052.8658	813.94208	187.43759	1209.5702	892.41077	178.14636	1179.3308	844.40216	145.44583	1198.2329	860.84344	292.51416	1167.3838	1115.8396	209.84824	-1401.7867	1056.3147	194.08966	-1460.2799	1095.0924	162.22961	-1423.9039	1069.8619	238.7451	-1425.9508	-1204.4771	1685.9772	-1563.3247	-1129.1038	1688.2881	-1606.1075	-1173.0972	1724.4231	-1581.959	-1133.5272	1581.0878	-1603.5999	-1239.6715	1699.1675	1119.4318	-1309.172	1698.4578	1071.7975	-1270.485	1736.3193	1096.9017	-1245.7782	1593.0171	1110.6936	988.85516	1664.2747	1162.3623	957.52673	1700.2461	1183.8204	922.11713	1662.1958	1214.8243	939.81464	1659.3838	1159.9821	999.24481	1668.5095	-1579.5034	1058.9888	1670.1317	-1518.7035	1025.1158	1708.0093	-1551.1624	1059.3552	1672.1873	-1585.6022	-232.53975	1722.7614	477.34006	-148.26688	1725.3379	477.58157	-195.6057	1761.0405	478.38855	-195.52678	1722.5736	509.04279	-195.65735	1725.8571	430.73077																																														-1069.1674	209.89697	-1624.759	-1074.7419	248.49065	-1624.087	-1321.5614	231.76683	1025.1376	-1320.2076	270.48822	1029.5896	848.17883	183.38371	1196.3763	852.03754	222.14598	1194.4796	1088.7791	202.68427	-1428.3781	1082.8013	240.98984	-1432.6146	-1171.8756	1686.9767	-1581.8297	-1170.6041	1647.9976	-1581.6949	-1270.8826	1698.8486	1098.0403	-1271.2963	1659.8689	1099.2245	952.87878	1705.5828	1187.004	972.86639	1733.7737	1168.9275	1026.639	1669.2532	-1551.6249	1028.1704	1630.2861	-1552.0901	-194.46829	1723.9253	477.44916	-193.27408	1684.9561	476.46286
